<svg width="864" height="534" viewBox="0 0 864 534" fill="none" xmlns="http://www.w3.org/2000/svg">
<path fill-rule="evenodd" clip-rule="evenodd" d="M384.525 199.69C391.547 198.119 396.912 203.813 397.145 211.01C397.378 218.208 391.3 222.45 384.413 222.45C377.526 222.45 372.434 218.208 372.2 211.01C371.967 203.813 377.504 201.259 384.525 199.69" fill="#221C14"/>
<path fill-rule="evenodd" clip-rule="evenodd" d="M380.41 194.713L381.775 201.418L383.414 193L380.41 194.713" fill="#9E6C4A"/>
<path fill-rule="evenodd" clip-rule="evenodd" d="M373.373 195.783C373.373 195.783 383.126 196.308 383.126 201.91C383.126 201.91 374.883 200.999 373.373 195.783" fill="#5A6A4C"/>
<path fill-rule="evenodd" clip-rule="evenodd" d="M385.097 198.409C392.118 196.838 397.483 202.532 397.716 209.729C397.949 216.926 391.871 221.17 384.983 221.17C378.097 221.17 373.006 216.926 372.773 209.729C372.54 202.532 378.074 199.978 385.097 198.409" fill="#8AAD59"/>
<path fill-rule="evenodd" clip-rule="evenodd" d="M382.664 199.889C387.965 198.705 392.012 203.001 392.189 208.433C392.364 213.864 387.778 217.067 382.58 217.067C377.382 217.067 373.539 213.864 373.363 208.433C373.187 203.001 377.364 201.074 382.664 199.889" fill="#9EC36C"/>
<path fill-rule="evenodd" clip-rule="evenodd" d="M378.228 204.807C380.216 204.362 381.732 205.973 381.799 208.009C381.865 210.047 380.146 211.247 378.196 211.247C376.247 211.247 374.806 210.047 374.74 208.009C374.675 205.973 376.241 205.251 378.228 204.807" fill="#FFFFFE"/>
<path fill-rule="evenodd" clip-rule="evenodd" d="M381.11 201.594C381.973 201.403 382.632 202.103 382.661 202.988C382.69 203.873 381.943 204.394 381.096 204.394C380.249 204.394 379.624 203.873 379.595 202.988C379.566 202.103 380.247 201.788 381.11 201.594" fill="#FFFFFE"/>
</svg>
