<svg width="864" height="534" viewBox="0 0 864 534" fill="none" xmlns="http://www.w3.org/2000/svg">
<path fill-rule="evenodd" clip-rule="evenodd" d="M331.34 114.956L329.661 116.271L351.36 146.268L353.039 144.951" fill="#221C14"/>
<path fill-rule="evenodd" clip-rule="evenodd" d="M328.057 117.306L326.381 118.621L348.19 148.789L349.865 147.474" fill="#221C14"/>
<path fill-rule="evenodd" clip-rule="evenodd" d="M326.061 113.685C326.061 113.685 326.774 119.239 326.345 119.239C325.918 119.239 318.543 116.412 318.543 116.412L319.639 112.891L323.206 114.132L326.061 113.685" fill="#221C14"/>
<path fill-rule="evenodd" clip-rule="evenodd" d="M309.651 108.678L322.592 114.777L321.925 116.265L307.89 111.405L309.651 108.678" fill="#221C14"/>
<path fill-rule="evenodd" clip-rule="evenodd" d="M329.312 109.624L326.192 112.851L323.073 116.08C322.676 116.488 322.531 117.045 322.674 117.609C322.817 118.172 323.207 118.582 323.747 118.735L327.988 119.938L332.227 121.14C332.766 121.292 333.302 121.145 333.699 120.735C334.097 120.324 334.242 119.768 334.098 119.204L331.856 110.346C331.714 109.781 331.323 109.372 330.784 109.22C330.245 109.066 329.709 109.213 329.312 109.624" fill="#221C14"/>
<path fill-rule="evenodd" clip-rule="evenodd" d="M330.053 110.938C329.65 110.938 329.324 111.277 329.324 111.696C329.324 112.116 329.65 112.457 330.053 112.457C330.455 112.457 330.781 112.116 330.781 111.696C330.781 111.277 330.455 110.938 330.053 110.938" fill="#B0B0B8"/>
<path fill-rule="evenodd" clip-rule="evenodd" d="M331.543 117.195C331.14 117.195 330.815 117.535 330.815 117.953C330.815 118.373 331.14 118.713 331.543 118.713C331.945 118.713 332.271 118.373 332.271 117.953C332.271 117.535 331.945 117.195 331.543 117.195" fill="#B0B0B8"/>
<path fill-rule="evenodd" clip-rule="evenodd" d="M325.815 115.854C325.412 115.854 325.087 116.194 325.087 116.614C325.087 117.034 325.412 117.373 325.815 117.373C326.218 117.373 326.543 117.034 326.543 116.614C326.543 116.194 326.218 115.854 325.815 115.854" fill="#B0B0B8"/>
<path fill-rule="evenodd" clip-rule="evenodd" d="M313.651 98.8069C312.583 103.642 310.9 110.982 313.196 112.768C319.282 117.504 318.3 125.162 315.663 131.064L297.097 124.97L278.532 118.875C279.615 112.46 283.021 105.6 290.61 105.355C293.474 105.261 296.13 98.2396 297.913 93.6403C299.104 90.5616 303.421 90.2763 307.187 91.5789C310.988 92.7603 314.368 95.5723 313.651 98.8069" fill="#221C14"/>
<path fill-rule="evenodd" clip-rule="evenodd" d="M314.097 97.962C313.029 102.796 311.343 110.137 313.641 111.925C319.726 116.657 318.747 124.314 316.107 130.219L306.967 127.219C309.605 121.314 310.586 113.657 304.501 108.923C302.204 107.137 303.887 99.796 304.956 94.9607C305.37 93.0993 304.422 91.3767 302.821 90.0247C304.336 89.914 306.033 90.18 307.631 90.732C311.432 91.9147 314.812 94.7273 314.097 97.962" fill="#B0B0B8"/>
<path fill-rule="evenodd" clip-rule="evenodd" d="M315.392 99.8555L315.49 99.5535C315.99 98.0015 315.548 96.4602 314.545 95.0935C313.425 93.5675 311.59 92.2588 309.598 91.4095C308.809 91.0462 307.983 90.7522 307.163 90.5455C306.36 90.3428 305.558 90.2242 304.793 90.2022L304.216 90.1875L304.628 90.6088C305.371 91.3708 305.93 92.2108 306.214 93.0815C306.468 93.8642 306.5 94.6808 306.238 95.4928L306.141 95.7955C304.608 100.557 302.367 107.521 304.552 109.594C307.002 111.917 308.036 114.67 308.152 117.49C308.297 121.023 307.007 124.679 305.267 127.757L305.134 127.989L314.376 132.085L314.48 131.906C316.258 128.761 317.574 125.013 317.426 121.378C317.305 118.438 316.231 115.571 313.678 113.152C311.715 111.29 313.9 104.498 315.392 99.8555ZM315.05 99.4016L314.952 99.7043C313.42 104.467 311.178 111.431 313.363 113.503C315.815 115.825 316.846 118.577 316.963 121.398C317.104 124.863 315.867 128.446 314.179 131.484L305.781 127.764C307.494 124.666 308.745 121.014 308.599 117.469C308.479 114.53 307.403 111.664 304.852 109.244C302.886 107.382 305.071 100.589 306.566 95.9469L306.662 95.6443C306.958 94.7276 306.923 93.8109 306.636 92.9289C306.383 92.1529 305.932 91.4029 305.34 90.7109C305.899 90.7616 306.472 90.8623 307.047 91.0063C307.844 91.2083 308.644 91.4909 309.41 91.8456C311.338 92.6656 313.104 93.9243 314.176 95.3803C315.089 96.6243 315.496 98.0189 315.05 99.4016V99.4016Z" fill="#FFFFFE"/>
<path fill-rule="evenodd" clip-rule="evenodd" d="M309.859 96.0312L309.188 102.683L311.741 102.963L312.412 96.3113L309.859 96.0312" fill="#FFFFFE"/>
<path fill-rule="evenodd" clip-rule="evenodd" d="M309.041 104.041L308.705 107.367L311.257 107.647L311.594 104.321L309.041 104.041" fill="#FFFFFE"/>
<path fill-rule="evenodd" clip-rule="evenodd" d="M324.67 195.621L349.631 148.58L347.8 147.523L322.838 194.565L324.67 195.621Z" fill="#221C14"/>
<path fill-rule="evenodd" clip-rule="evenodd" d="M328.176 197.638L353.137 150.596L351.306 149.539L326.343 196.582L328.176 197.638Z" fill="#221C14"/>
<path fill-rule="evenodd" clip-rule="evenodd" d="M348.686 152.102L344.823 149.918C344.332 149.64 344.042 149.148 344.027 148.566C344.011 147.983 344.276 147.474 344.753 147.17L348.498 144.776L352.245 142.379C352.72 142.076 353.275 142.061 353.766 142.338C354.257 142.616 354.546 143.108 354.561 143.691L354.796 152.849C354.811 153.431 354.546 153.94 354.07 154.244C353.594 154.548 353.041 154.565 352.549 154.287L348.686 152.102Z" fill="#221C14"/>
<path fill-rule="evenodd" clip-rule="evenodd" d="M351.795 144.753C351.709 145.163 351.956 145.567 352.349 145.658C352.74 145.749 353.129 145.492 353.217 145.083C353.304 144.673 353.057 144.269 352.664 144.177C352.272 144.085 351.884 144.343 351.795 144.753Z" fill="#9C8F80"/>
<path fill-rule="evenodd" clip-rule="evenodd" d="M351.906 151.193C351.821 151.602 352.066 152.006 352.46 152.098C352.853 152.189 353.241 151.931 353.328 151.522C353.416 151.112 353.168 150.708 352.775 150.616C352.382 150.524 351.994 150.784 351.906 151.193Z" fill="#9C8F80"/>
<path fill-rule="evenodd" clip-rule="evenodd" d="M346.612 148.592C346.524 149.001 346.772 149.406 347.164 149.497C347.558 149.588 347.946 149.33 348.034 148.921C348.12 148.512 347.874 148.106 347.481 148.014C347.088 147.924 346.698 148.181 346.612 148.592Z" fill="#9C8F80"/>
<path fill-rule="evenodd" clip-rule="evenodd" d="M325.008 200.82L320.616 200.658C320.056 200.636 319.588 200.33 319.324 199.816C319.063 199.301 319.083 198.724 319.379 198.23L321.709 194.347L324.038 190.463C324.336 189.969 324.826 189.698 325.383 189.718C325.942 189.738 326.412 190.045 326.674 190.559L328.735 194.605L330.798 198.65C331.058 199.165 331.04 199.743 330.743 200.237C330.447 200.732 329.957 201.002 329.4 200.98L325.008 200.82Z" fill="#221C14"/>
<path fill-rule="evenodd" clip-rule="evenodd" d="M327.254 208.515H322.524V197.109H327.254V208.515Z" fill="#221C14"/>
</svg>
