<svg width="1168" height="534" viewBox="0 0 1168 534" fill="none" xmlns="http://www.w3.org/2000/svg">
<path opacity="0.01" fill-rule="evenodd" clip-rule="evenodd" d="M389.342 30.6367L502.027 31.3821L499.992 133.158L391.058 132.238L389.342 30.6367Z" fill="#ABAAB3"/>
<path fill-rule="evenodd" clip-rule="evenodd" d="M383 25.3477L495.687 26.0931L493.649 127.87L384.716 126.949L383 25.3477Z" fill="#232422"/>
<path fill-rule="evenodd" clip-rule="evenodd" d="M386.213 28.3164L492.356 29.0168L490.437 124.884L387.83 124.017L386.213 28.3164Z" fill="#C3C2CE"/>
<path fill-rule="evenodd" clip-rule="evenodd" d="M490.564 118.515L490.437 124.883L387.83 124.015L386.523 46.7109L490.564 118.515Z" fill="#ABAAB3"/>
<path fill-rule="evenodd" clip-rule="evenodd" d="M490.564 118.515L490.437 124.883L387.83 124.015L386.523 46.7109L490.564 118.515Z" fill="#CFCED8"/>
<path fill-rule="evenodd" clip-rule="evenodd" d="M418.605 123.469L388.594 123.216L388.244 102.516L418.605 123.469Z" fill="#FFFFFE"/>
<path fill-rule="evenodd" clip-rule="evenodd" d="M407.297 47.7773L470.501 48.196L469.359 105.279L408.263 104.764L407.297 47.7773Z" fill="#FBFAF8"/>
<path fill-rule="evenodd" clip-rule="evenodd" d="M469.387 103.896L469.36 105.277L408.263 104.76L407.525 61.2031L469.387 103.896Z" fill="#FFFFFE"/>
<path fill-rule="evenodd" clip-rule="evenodd" d="M420.375 59.6719L457.429 59.9149L456.759 93.3821L420.939 93.0805L420.375 59.6719Z" fill="#ABAAB3"/>
<path fill-rule="evenodd" clip-rule="evenodd" d="M421.817 67.5312L426.822 68.7457L426.109 70.7524L429.687 69.4704L427.839 72.5358L431.028 71.821L440.332 82.6808L439.31 83.5541L430.533 73.3082L425.063 74.5326L426.586 72.0082L423.894 72.9724L425.055 69.7L421.502 68.8375L421.817 67.5312Z" fill="#FFFFFE"/>
<path fill-rule="evenodd" clip-rule="evenodd" d="M442.303 72.8451C441.797 72.3419 441.101 72.0322 440.335 72.0322C439.566 72.0322 438.87 72.3419 438.368 72.8433C437.865 73.3484 437.554 74.0434 437.554 74.8113C437.554 75.5801 437.865 76.2751 438.365 76.7783C438.87 77.2816 439.566 77.5922 440.335 77.5922C441.101 77.5922 441.797 77.2816 442.301 76.7801C442.804 76.2751 443.113 75.5801 443.113 74.8113C443.113 74.0434 442.804 73.3484 442.303 72.8451ZM440.335 70.6836C441.472 70.6836 442.505 71.1463 443.25 71.8926C443.998 72.6426 444.462 73.6743 444.462 74.8113C444.462 75.9501 443.998 76.9818 443.254 77.7281C442.505 78.4771 441.472 78.9399 440.335 78.9399C439.196 78.9399 438.165 78.4771 437.418 77.7308C436.671 76.9818 436.207 75.9501 436.207 74.8113C436.207 73.6743 436.671 72.6426 437.416 71.8962C438.165 71.1463 439.196 70.6836 440.335 70.6836Z" fill="#FFFFFE"/>
<path fill-rule="evenodd" clip-rule="evenodd" d="M433.843 81.0009L428.12 83.1093L430.23 88.8358L435.954 86.7256L433.843 81.0009ZM426.812 81.8795L434.795 78.9375L438.016 87.6772L429.279 90.8974L426.059 82.1577L426.812 81.8795Z" fill="#FFFFFE"/>
<path fill-rule="evenodd" clip-rule="evenodd" d="M449.845 81.1272L447.725 77.4532L443.485 84.7984H451.963L449.845 81.1272ZM448.305 75.776L454.293 86.147H441.156L447.725 74.7695L448.305 75.776Z" fill="#FFFFFE"/>
<path opacity="0.01" fill-rule="evenodd" clip-rule="evenodd" d="M522.912 21.9258L695.09 23.0619L691.976 178.57L525.536 177.164L522.912 21.9258Z" fill="#919199"/>
<path fill-rule="evenodd" clip-rule="evenodd" d="M513.211 8.94531L685.387 10.0814L682.275 165.589L515.835 164.184L513.211 8.94531Z" fill="#232422"/>
<path fill-rule="evenodd" clip-rule="evenodd" d="M518.119 13.4766L680.298 14.5488L677.366 161.026L520.592 159.701L518.119 13.4766Z" fill="#C3C2CE"/>
<path fill-rule="evenodd" clip-rule="evenodd" d="M655.849 160.843L520.593 159.7L519.016 66.4062L655.849 160.843Z" fill="#CFCED8"/>
<path fill-rule="evenodd" clip-rule="evenodd" d="M550.338 43.2109L646.906 43.8492L645.162 131.07L551.81 130.28L550.338 43.2109Z" fill="#FBFAF8"/>
<path fill-rule="evenodd" clip-rule="evenodd" d="M570.238 142.455L571.191 141.391L573.425 143.394L572.471 144.458L570.238 142.455Z" fill="#FFFFFE"/>
<path fill-rule="evenodd" clip-rule="evenodd" d="M634.954 139.5L636.128 140.312L634.421 142.78L633.246 141.967L634.954 139.5Z" fill="#FFFFFE"/>
<path fill-rule="evenodd" clip-rule="evenodd" d="M570.793 61.8203L626.453 62.1885L625.446 112.459L571.642 112.003L570.793 61.8203Z" fill="#ABAAB3"/>
<path fill-rule="evenodd" clip-rule="evenodd" d="M592.604 90.9361L589.205 85.0466L582.412 96.8193H595.999L592.604 90.9361ZM590.138 82.3603L599.733 98.9799H578.678L589.205 80.7461L590.138 82.3603Z" fill="#FBFAF8"/>
<path fill-rule="evenodd" clip-rule="evenodd" d="M616.08 81.3096C614.081 79.3065 611.308 78.0669 608.246 78.0669C605.187 78.0669 602.416 79.3074 600.412 81.3123C598.407 83.3163 597.167 86.0882 597.167 89.1473C597.167 92.2099 598.407 94.9827 600.407 96.9822C602.416 98.988 605.187 100.229 608.246 100.229C611.308 100.229 614.081 98.9889 616.08 96.9885C618.085 94.9827 619.325 92.2099 619.325 89.1473C619.325 86.0882 618.084 83.3163 616.08 81.3096ZM608.246 75.9062C611.898 75.9062 615.209 77.3908 617.604 79.7873C620.002 82.1802 621.485 85.494 621.485 89.1473C621.485 92.7996 620.002 96.1099 617.607 98.5064C615.207 100.906 611.897 102.389 608.246 102.389C604.593 102.389 601.28 100.906 598.884 98.5109C596.491 96.1117 595.008 92.8005 595.008 89.1473C595.008 85.494 596.489 82.1802 598.884 79.7855C601.28 77.389 604.593 75.9062 608.246 75.9062Z" fill="#FBFAF8"/>
<path fill-rule="evenodd" clip-rule="evenodd" d="M581.822 67.707H602.98L587.938 73.493L611.688 88.7767L610.524 90.5907L583.203 73.0096L591.376 69.8668H581.822V67.707Z" fill="#FBFAF8"/>
<path fill-rule="evenodd" clip-rule="evenodd" d="M582.005 103.609L615.933 103.789L615.926 105.939L581.996 105.76L582.005 103.609Z" fill="#FBFAF8"/>
<path opacity="0.401948" fill-rule="evenodd" clip-rule="evenodd" d="M605.313 71.5708L597.832 71L560 123.645L583.05 166.088L595.81 158.12L590.628 128.252L585.639 117.538L610.916 93.9287L605.313 71.5708Z" fill="#A19FAD"/>
<path fill-rule="evenodd" clip-rule="evenodd" d="M266.616 222H744.233V218.261L779.482 210.261L803.57 145.438L900 146L874.831 213.947H906.559V232.434H899.705V339.728L906.559 334.952L919.792 310.31L922.077 309.88L924.651 371.946L891.767 367.797L890 232.434H590.543V316.494H581.069V232H266.342L266.616 222Z" fill="#D3D2DB"/>
<path fill-rule="evenodd" clip-rule="evenodd" d="M642.523 219.915L679.9 221.624L693.885 281.664L703.77 315.282L708.889 366.156L697.398 364.371L672.024 285.221L649.682 197.675L648.722 359.737L633.107 358.721L620.506 296.693L624.507 253.613L621.279 214.169L624.189 179.32L625.002 214.754L634.922 219.672L642.523 219.915Z" fill="#D3D2DB"/>
<path fill-rule="evenodd" clip-rule="evenodd" d="M277 364H288V233H277V364Z" fill="#D3D2DB"/>
</svg>
